<svg width="60" height="50" viewBox="0 0 60 50" fill="none" xmlns="http://www.w3.org/2000/svg">
<path d="M10.3658 16.4634H17.8548V37.2753H30.4878V43.2927H10.3658V16.4634Z" fill="white"/>
<path d="M35.3517 25.0261H31.2678V32.3171H23.7805V4.87805H35.8811C38.276 4.87805 40.3558 5.29617 42.1205 6.13241C43.8851 6.94251 45.2465 8.11847 46.2044 9.66028C47.1624 11.176 47.6414 12.966 47.6414 15.0305C47.6414 17.0166 47.1876 18.7544 46.28 20.2439C45.3977 21.7073 44.1246 22.8571 42.4608 23.6934L48.1708 32.3171H40.1541L35.3517 25.0261ZM40.0785 15.0305C40.0785 13.75 39.6877 12.757 38.9063 12.0514C38.1248 11.3458 36.9651 10.993 35.4273 10.993H31.2678V19.0287H35.4273C36.9651 19.0287 38.1248 18.689 38.9063 18.0096C39.6877 17.304 40.0785 16.311 40.0785 15.0305Z" fill="white"/>
<path d="M0 0H11.5854V4.26829H0V0Z" fill="white"/>
<path d="M0 4.26828H4.26829V11.5854H0V4.26828Z" fill="white"/>
<path d="M59.1665 50L47.7835 49.9447L47.8056 45.3939L59.1886 45.4492L59.1665 50Z" fill="white"/>
<path d="M59.1887 45.4492L54.638 45.4271L54.6707 38.682L59.2215 38.7041L59.1887 45.4492Z" fill="white"/>
</svg>
